<svg xmlns="http://www.w3.org/2000/svg" xmlns:xlink="http://www.w3.org/1999/xlink" width="500" zoomAndPan="magnify" viewBox="0 0 375 374.999991" height="500" preserveAspectRatio="xMidYMid meet" version="1.0"><defs><g/><clipPath id="235fb7bfdb"><path d="M 209 149 L 312 149 L 312 256.550781 L 209 256.550781 Z M 209 149 " clip-rule="nonzero"/></clipPath><clipPath id="4955758a6f"><path d="M 257 118.550781 L 277 118.550781 L 277 145 L 257 145 Z M 257 118.550781 " clip-rule="nonzero"/></clipPath><clipPath id="86a5be41a8"><rect x="0" width="188" y="0" height="278"/></clipPath><clipPath id="b3888bce83"><path d="M 236.355469 111.886719 L 245.355469 111.886719 L 245.355469 120.886719 L 236.355469 120.886719 Z M 236.355469 111.886719 " clip-rule="nonzero"/></clipPath><clipPath id="18c50ed345"><path d="M 267.820312 122.855469 L 299.320312 122.855469 L 299.320312 154.355469 L 267.820312 154.355469 Z M 267.820312 122.855469 " clip-rule="nonzero"/></clipPath><clipPath id="77e57fc869"><path d="M 278.015625 96.464844 L 302.765625 96.464844 L 302.765625 121.214844 L 278.015625 121.214844 Z M 278.015625 96.464844 " clip-rule="nonzero"/></clipPath><clipPath id="d4850d6d12"><path d="M 243.210938 80.398438 L 269.460938 80.398438 L 269.460938 106.648438 L 243.210938 106.648438 Z M 243.210938 80.398438 " clip-rule="nonzero"/></clipPath><clipPath id="83cbc192d2"><path d="M 0.238281 5 L 9 5 L 9 15 L 0.238281 15 Z M 0.238281 5 " clip-rule="nonzero"/></clipPath><clipPath id="16d81449ed"><rect x="0" width="212" y="0" height="24"/></clipPath></defs><rect x="-37.5" width="450" fill="#ffffff" y="-37.499999" height="449.999989" fill-opacity="1"/><rect x="-37.5" width="450" fill="#fef8f2" y="-37.499999" height="449.999989" fill-opacity="1"/><g clip-path="url(#235fb7bfdb)"><path fill="#bab668" d="M 308.484375 198.097656 C 307.363281 196.824219 305.898438 195.855469 304.515625 194.683594 C 305.804688 191.382812 305.875 187.957031 303.898438 184.699219 C 301.9375 181.464844 298.851562 179.921875 295.410156 179.433594 C 295.511719 177.46875 295.722656 175.679688 295.675781 173.894531 C 295.550781 168.949219 292.507812 164.449219 288.085938 163.046875 C 287.367188 162.820312 286.644531 162.550781 286.078125 162.042969 C 285.539062 161.5625 285.390625 160.921875 285.167969 160.261719 C 284.171875 157.324219 280.992188 155.9375 278.234375 155.089844 C 277.722656 154.929688 277.167969 154.578125 276.867188 154.152344 C 275.546875 152.28125 273.976562 150.746094 271.679688 149.804688 C 271.527344 150.574219 271.386719 151.253906 271.242188 151.964844 C 275.480469 153.949219 277.597656 157.398438 278.53125 161.785156 C 278.628906 160.84375 278.722656 159.898438 278.832031 158.800781 C 279.28125 159.015625 279.695312 159.144531 280.03125 159.382812 C 282.066406 160.835938 282.765625 163.332031 281.996094 166.1875 C 281.28125 168.863281 279.507812 170.699219 277.265625 172.183594 C 276.789062 172.496094 275.167969 173.390625 275.246094 173.484375 C 279.683594 172.820312 283.207031 170 284.742188 165.9375 C 287.871094 166.226562 289.890625 167.863281 291.054688 170.582031 C 292.519531 174 292.164062 177.410156 290.722656 180.722656 C 288.484375 185.871094 284.488281 189.402344 279.710938 192.140625 C 271.3125 196.957031 262.105469 198.644531 252.5625 198.796875 C 245.253906 198.914062 238.144531 197.597656 231.226562 195.253906 C 230.882812 195.136719 230.519531 195.058594 230.167969 194.964844 L 230.007812 195.25 C 230.429688 195.648438 230.820312 196.089844 231.28125 196.4375 C 234.660156 198.96875 238.53125 200.394531 242.613281 201.261719 C 251.089844 203.058594 259.550781 202.640625 267.898438 200.566406 C 278.398438 197.960938 287.808594 193.578125 293.511719 183.695312 C 293.6875 183.394531 294.214844 183.140625 294.585938 183.125 C 298.960938 182.941406 302.40625 186.972656 301.574219 191.234375 C 301.152344 193.386719 300.101562 195.203125 298.613281 196.777344 C 294.519531 201.105469 289.265625 203.242188 283.554688 204.324219 C 280.40625 204.921875 276.648438 205.171875 273.347656 205.574219 C 273.859375 206.609375 275.105469 207.226562 276.285156 207.316406 C 286.3125 208.054688 295.375 206.070312 302.382812 198.238281 C 305.820312 199.277344 308.046875 202.851562 307.441406 206.355469 C 306.636719 211.019531 302.214844 214.789062 297.460938 214.988281 C 295.214844 215.082031 293.28125 214.355469 291.476562 213.117188 C 289.730469 218.316406 283.402344 218.910156 279.324219 214.054688 C 277.839844 216.609375 275.699219 218.046875 272.671875 218.117188 C 269.609375 218.191406 267.53125 216.617188 265.84375 214.1875 C 264.253906 216.890625 262.082031 218.378906 258.980469 218.339844 C 255.929688 218.296875 253.804688 216.738281 252.269531 214.191406 C 249.023438 218.933594 242.636719 219.894531 239.0625 213.949219 C 237.339844 215.71875 235.449219 217.265625 232.859375 217.296875 C 230.078125 217.332031 228.246094 215.886719 227.429688 213.242188 C 221.578125 216.160156 216.554688 214.644531 214.164062 209.390625 C 212.136719 204.917969 214.21875 200.339844 217.570312 199.050781 C 219.769531 202.972656 223.105469 205.738281 227.25 207.332031 C 230.066406 208.417969 232.675781 209.085938 235.671875 209.515625 C 238.878906 209.972656 242.097656 209.992188 245.316406 209.679688 C 247.71875 209.445312 250.5 208.976562 252.097656 206.984375 C 251.582031 206.984375 251.199219 206.984375 250.816406 206.984375 C 248.515625 206.992188 246.214844 207.082031 243.921875 206.992188 C 239.074219 206.800781 234.292969 206.195312 229.742188 204.386719 C 226.292969 203.019531 223.328125 201.03125 221.269531 197.894531 C 219.832031 195.703125 219.398438 193.757812 220.058594 190.390625 C 222.785156 191.292969 226.546875 191.785156 228.980469 191.703125 C 233.003906 191.574219 235.8125 191.375 239.804688 190.882812 C 249.171875 189.730469 257.640625 186.753906 266.152344 182.652344 C 267.816406 181.847656 270.882812 179.734375 270.832031 179.640625 C 270.582031 179.746094 270.34375 179.867188 270.089844 179.953125 C 266.214844 181.28125 262.386719 182.777344 258.449219 183.882812 C 251.84375 185.734375 245.050781 186.648438 238.226562 187.253906 C 233.765625 187.648438 229.296875 187.785156 224.84375 187.054688 C 220.542969 186.347656 217.976562 183.117188 218.976562 179.417969 C 219.773438 176.464844 222.046875 174.945312 224.902344 174.433594 C 227.796875 173.914062 230.496094 174.460938 232.570312 176.828125 C 233.4375 177.816406 234.300781 178.847656 235.328125 179.660156 C 239.753906 183.15625 249.800781 183.773438 254.699219 180.925781 C 254.738281 180.902344 251.453125 181.363281 247.417969 180.164062 C 249.539062 179.066406 251.679688 178.351562 253.605469 177.257812 C 258.027344 174.757812 260.871094 171.105469 261.78125 166.507812 C 261.886719 165.976562 262.109375 163.8125 262.109375 163.0625 C 261.449219 163.71875 260.375 165.359375 259.878906 166.097656 C 255.5 173.15625 250.769531 176.230469 243.019531 176.769531 C 239.792969 176.996094 236.722656 176.40625 234.378906 173.90625 C 231.371094 170.695312 232.621094 166.128906 236.824219 164.816406 C 237.488281 164.605469 237.929688 164.667969 238.34375 165.304688 C 239.328125 166.828125 240.792969 167.742188 242.566406 168.058594 C 246.582031 168.769531 250.980469 166.53125 252.773438 162.898438 C 253.089844 162.257812 253.578125 160.570312 253.46875 160.5 C 253.105469 161.171875 252.59375 161.625 252.113281 162.078125 C 250.628906 163.46875 249.015625 164.082031 247.15625 164.703125 C 243.765625 165.835938 241.246094 164.671875 239.53125 161.601562 C 239.390625 161.351562 239 161.070312 238.742188 161.085938 C 234.609375 161.339844 230.746094 163.183594 229.382812 167.867188 C 229.082031 168.914062 229.078125 170.042969 228.933594 171.132812 C 223.75 170.320312 219.265625 171.472656 216.464844 176.148438 C 213.914062 180.40625 214.816406 184.425781 218.253906 187.933594 C 216.472656 189.964844 215.742188 192.277344 216.054688 194.875 C 216.132812 195.558594 215.753906 195.742188 215.28125 196.019531 C 212.125 197.847656 210.285156 200.570312 209.734375 204.167969 C 208.761719 210.519531 213.585938 217.019531 220.230469 218.574219 C 220.667969 218.679688 221.191406 219.121094 221.355469 219.53125 C 222.316406 221.949219 223.195312 224.394531 224.074219 226.84375 C 227.226562 235.65625 230.382812 244.472656 233.5 253.296875 C 233.777344 254.078125 234.183594 254.492188 235 254.59375 C 236.277344 254.75 237.542969 255.042969 238.828125 255.121094 C 245.464844 255.515625 252.101562 256.011719 258.746094 256.179688 C 267.179688 256.394531 275.59375 255.945312 283.953125 254.675781 C 285.058594 254.507812 285.5625 254.03125 285.925781 252.988281 C 289.820312 241.847656 293.777344 230.730469 297.699219 219.597656 C 297.9375 218.925781 298.273438 218.621094 299.015625 218.480469 C 302.527344 217.832031 305.507812 216.203125 307.914062 213.542969 C 312.035156 208.984375 312.34375 202.492188 308.484375 198.097656 Z M 233.53125 221.945312 C 234.363281 222.039062 235.125 222.050781 235.835938 222.234375 C 236.09375 222.300781 237.953125 231.246094 238.695312 235.328125 C 239.613281 240.390625 240.507812 245.453125 241.414062 250.515625 C 241.316406 250.550781 236.082031 231.597656 233.53125 221.945312 Z M 246.046875 223.191406 C 246.996094 223.277344 247.742188 223.347656 248.621094 223.429688 C 249.304688 232.617188 249.984375 241.765625 250.664062 250.914062 C 250.554688 250.929688 247.5 232.585938 246.046875 223.191406 Z M 259.898438 250.933594 C 259.804688 250.933594 258.863281 232.839844 258.484375 223.648438 L 261.070312 223.648438 C 260.679688 232.761719 260.289062 241.847656 259.898438 250.933594 Z M 268.773438 250.894531 C 269.460938 241.742188 270.148438 232.585938 270.84375 223.320312 C 271.664062 223.269531 272.449219 223.222656 273.414062 223.164062 C 271.953125 232.523438 268.875 250.90625 268.773438 250.894531 Z M 278.015625 250.523438 C 278.429688 248.089844 278.816406 245.65625 279.265625 243.230469 C 280.480469 236.707031 281.742188 230.1875 282.929688 223.660156 C 283.042969 223.039062 283.179688 222.316406 283.179688 222.316406 C 283.179688 222.316406 284.085938 222.152344 284.671875 222.101562 C 285.65625 221.988281 285.457031 222.027344 286.015625 221.964844 C 283.398438 231.628906 278.097656 250.539062 278.015625 250.523438 Z M 278.015625 250.523438 " fill-opacity="1" fill-rule="nonzero"/></g><path fill="#bab668" d="M 255.921875 158.925781 C 261.042969 160.386719 266.359375 157.992188 268.878906 153.085938 C 270.941406 149.074219 270.160156 144.214844 267.027344 141.546875 C 265.097656 139.90625 262.488281 140.21875 261.265625 142.382812 C 263.371094 142.90625 265.230469 143.761719 266.074219 145.9375 C 266.84375 147.921875 266.625 150.507812 265.726562 151.582031 C 265.640625 150.457031 265.734375 149.027344 265.378906 147.722656 C 264.808594 145.644531 263.058594 144.800781 261.003906 145.355469 C 259.703125 145.707031 258.589844 145.351562 257.425781 144.761719 C 256.789062 144.4375 255.835938 144.246094 255.207031 144.476562 C 253.707031 145.027344 252.652344 146.195312 252.378906 147.808594 C 252.167969 149.078125 252.183594 150.378906 252.113281 151.421875 C 249.835938 146.949219 252.746094 141.988281 258.085938 141.816406 C 258.085938 141.65625 257.933594 141.292969 257.898438 141.230469 C 257.234375 140.164062 256.277344 139.839844 255.324219 139.691406 C 254.160156 139.511719 252.945312 139.707031 251.941406 140.335938 C 249.628906 141.78125 248.308594 144.480469 248.035156 147.109375 C 247.476562 152.453125 250.917969 157.5 255.921875 158.925781 Z M 255.921875 158.925781 " fill-opacity="1" fill-rule="nonzero"/><path fill="#bab668" d="M 260.128906 178.082031 C 260.167969 178.171875 261.710938 178.066406 262.050781 178.023438 C 265.835938 177.550781 268.710938 175.472656 271.0625 172.683594 C 274.609375 168.46875 276.34375 163.714844 274.660156 158.203125 C 273.992188 156.011719 272.734375 154.203125 270.574219 153.066406 C 270.039062 153.933594 269.5625 154.703125 269.066406 155.507812 C 271.953125 159.523438 271.914062 163.863281 270.246094 168.285156 C 268.558594 172.773438 264.207031 175.84375 260.128906 178.082031 Z M 260.128906 178.082031 " fill-opacity="1" fill-rule="nonzero"/><g clip-path="url(#4955758a6f)"><path fill="#bab668" d="M 261.75 143.550781 C 261.035156 143.117188 260.777344 142.398438 260.808594 141.859375 C 261.0625 137.179688 262.4375 132.820312 265 128.875 C 266.617188 126.390625 268.621094 124.265625 271.414062 123.054688 C 271.84375 122.867188 272.480469 122.910156 272.929688 123.078125 C 274.113281 123.527344 275.515625 123.078125 276.003906 121.976562 C 276.472656 120.910156 275.96875 119.640625 274.882812 119.144531 C 273.734375 118.625 272.492188 119.160156 271.875 120.355469 C 271.679688 120.734375 271.316406 121.128906 270.933594 121.292969 C 268.820312 122.203125 267.027344 123.53125 265.527344 125.246094 C 261.726562 129.59375 259.925781 134.789062 259.136719 140.394531 C 258.976562 141.527344 259.039062 142.757812 257.398438 142.824219 C 258.144531 144.265625 260.15625 144.695312 261.75 143.550781 Z M 261.75 143.550781 " fill-opacity="1" fill-rule="nonzero"/></g><path fill="#bab668" d="M 275.996094 210.8125 C 270.515625 209.667969 264.972656 209.269531 261.289062 204.589844 C 260.078125 205.109375 258.992188 205.574219 257.898438 206.042969 C 260.308594 210.203125 270.679688 213.035156 275.996094 210.8125 Z M 275.996094 210.8125 " fill-opacity="1" fill-rule="nonzero"/><path fill="#bab668" d="M 247.988281 162.507812 C 247.355469 160.605469 247.347656 160.621094 245.683594 160.109375 C 245.238281 159.972656 244.785156 159.746094 244.417969 159.453125 C 242.777344 158.148438 242.523438 156.058594 243.960938 154.089844 C 244.839844 152.890625 246.035156 151.917969 247.082031 150.847656 C 244.625 150.851562 241.746094 152.71875 240.832031 155 C 239.960938 157.179688 240.15625 159.257812 241.804688 161.035156 C 243.519531 162.878906 245.671875 162.988281 247.988281 162.507812 Z M 247.988281 162.507812 " fill-opacity="1" fill-rule="nonzero"/><g transform="matrix(1, 0, 0, 1, 59, 70)"><g clip-path="url(#86a5be41a8)"><g fill="#f4afbd" fill-opacity="1"><g transform="translate(0.0591864, 188.732935)"><g><path d="M 7.734375 -179.703125 L 73.8125 -179.703125 C 73.8125 -163.671875 73.859375 -147.585938 73.953125 -131.453125 C 74.046875 -115.328125 74.09375 -99.25 74.09375 -83.21875 L 77.6875 -83.21875 C 77.875 -89.664062 79.765625 -95.054688 83.359375 -99.390625 C 86.953125 -103.722656 91.421875 -106.8125 96.765625 -108.65625 C 102.109375 -110.5 107.359375 -110.585938 112.515625 -108.921875 L 112.25 -179.703125 L 178.59375 -179.703125 L 178.59375 0.28125 L 112.515625 0.28125 L 112.515625 -61.921875 C 112.515625 -66.722656 111.222656 -70.597656 108.640625 -73.546875 C 106.066406 -76.492188 102.890625 -78.472656 99.109375 -79.484375 C 95.335938 -80.492188 91.515625 -80.535156 87.640625 -79.609375 C 83.765625 -78.691406 80.535156 -76.804688 77.953125 -73.953125 C 75.378906 -71.097656 74.09375 -67.273438 74.09375 -62.484375 L 74.09375 0.28125 L 8.015625 0.28125 Z M 7.734375 -179.703125 "/></g></g></g></g></g><g clip-path="url(#b3888bce83)"><path fill="#bab668" d="M 245.683594 116.550781 C 242.183594 117.195312 241.664062 117.714844 241.019531 121.214844 C 240.375 117.714844 239.851562 117.195312 236.355469 116.550781 C 239.851562 115.90625 240.375 115.382812 241.019531 111.886719 C 241.664062 115.382812 242.183594 115.90625 245.683594 116.550781 Z M 245.683594 116.550781 " fill-opacity="1" fill-rule="nonzero"/></g><g clip-path="url(#18c50ed345)"><path fill="#bab668" d="M 283.441406 132.402344 C 283.625 133.136719 283.90625 133.832031 284.277344 134.492188 C 284.652344 135.148438 285.105469 135.746094 285.640625 136.28125 C 286.171875 136.816406 286.769531 137.269531 287.429688 137.640625 C 288.085938 138.015625 288.78125 138.292969 289.515625 138.476562 C 288.78125 138.660156 288.085938 138.9375 287.429688 139.308594 C 286.769531 139.683594 286.171875 140.136719 285.640625 140.671875 C 285.105469 141.207031 284.652344 141.804688 284.277344 142.460938 C 283.90625 143.117188 283.625 143.816406 283.441406 144.546875 C 283.257812 143.816406 282.980469 143.117188 282.609375 142.460938 C 282.234375 141.804688 281.78125 141.207031 281.246094 140.671875 C 280.710938 140.136719 280.117188 139.683594 279.457031 139.308594 C 278.800781 138.9375 278.105469 138.660156 277.371094 138.476562 C 278.105469 138.292969 278.800781 138.015625 279.457031 137.640625 C 280.117188 137.269531 280.710938 136.816406 281.246094 136.28125 C 281.78125 135.746094 282.234375 135.148438 282.609375 134.492188 C 282.980469 133.832031 283.257812 133.136719 283.441406 132.402344 M 283.441406 122.855469 C 283.441406 126.375 283.292969 129.101562 283.0625 131.214844 C 283.015625 131.652344 282.929688 132.078125 282.808594 132.503906 C 282.6875 132.925781 282.535156 133.332031 282.34375 133.730469 C 282.152344 134.125 281.933594 134.503906 281.679688 134.863281 C 281.425781 135.21875 281.140625 135.554688 280.832031 135.867188 C 280.519531 136.175781 280.1875 136.457031 279.828125 136.710938 C 279.46875 136.964844 279.09375 137.1875 278.695312 137.378906 C 278.300781 137.566406 277.890625 137.722656 277.46875 137.84375 C 277.046875 137.964844 276.617188 138.046875 276.179688 138.09375 C 274.066406 138.328125 271.339844 138.476562 267.820312 138.476562 C 271.339844 138.476562 274.066406 138.625 276.179688 138.859375 C 276.617188 138.90625 277.046875 138.988281 277.46875 139.109375 C 277.890625 139.230469 278.300781 139.386719 278.695312 139.574219 C 279.09375 139.765625 279.46875 139.988281 279.828125 140.242188 C 280.1875 140.496094 280.519531 140.777344 280.832031 141.085938 C 281.140625 141.398438 281.425781 141.734375 281.679688 142.089844 C 281.933594 142.449219 282.152344 142.828125 282.34375 143.222656 C 282.535156 143.617188 282.6875 144.027344 282.808594 144.449219 C 282.929688 144.871094 283.015625 145.300781 283.0625 145.738281 C 283.292969 147.851562 283.441406 150.578125 283.441406 154.097656 C 283.441406 150.578125 283.59375 147.851562 283.824219 145.738281 C 283.871094 145.300781 283.957031 144.871094 284.078125 144.449219 C 284.195312 144.027344 284.351562 143.617188 284.542969 143.222656 C 284.730469 142.828125 284.953125 142.449219 285.207031 142.089844 C 285.460938 141.734375 285.742188 141.398438 286.054688 141.085938 C 286.363281 140.777344 286.699219 140.496094 287.058594 140.242188 C 287.417969 139.988281 287.792969 139.765625 288.1875 139.574219 C 288.585938 139.386719 288.996094 139.230469 289.417969 139.109375 C 289.839844 138.988281 290.269531 138.90625 290.707031 138.859375 C 292.816406 138.625 295.542969 138.476562 299.066406 138.476562 C 295.542969 138.476562 292.816406 138.328125 290.707031 138.09375 C 290.269531 138.046875 289.839844 137.964844 289.417969 137.84375 C 288.996094 137.722656 288.585938 137.566406 288.1875 137.378906 C 287.792969 137.1875 287.417969 136.964844 287.058594 136.710938 C 286.699219 136.457031 286.363281 136.175781 286.054688 135.867188 C 285.742188 135.554688 285.460938 135.21875 285.207031 134.863281 C 284.953125 134.503906 284.730469 134.125 284.542969 133.730469 C 284.351562 133.332031 284.195312 132.925781 284.078125 132.503906 C 283.957031 132.078125 283.871094 131.652344 283.824219 131.214844 C 283.59375 129.101562 283.441406 126.375 283.441406 122.855469 Z M 283.441406 122.855469 " fill-opacity="1" fill-rule="nonzero"/></g><g clip-path="url(#77e57fc869)"><path fill="#bab668" d="M 290.691406 103.085938 C 290.765625 103.785156 290.957031 104.449219 291.261719 105.078125 C 291.5625 105.710938 291.960938 106.277344 292.457031 106.769531 C 292.953125 107.265625 293.515625 107.667969 294.148438 107.96875 C 294.78125 108.273438 295.445312 108.460938 296.144531 108.539062 C 297.816406 108.722656 299.976562 108.839844 302.765625 108.839844 C 299.976562 108.839844 297.816406 108.957031 296.144531 109.140625 C 295.445312 109.21875 294.78125 109.40625 294.148438 109.710938 C 293.515625 110.011719 292.953125 110.414062 292.457031 110.910156 C 291.960938 111.402344 291.5625 111.96875 291.261719 112.601562 C 290.957031 113.230469 290.765625 113.898438 290.691406 114.59375 C 290.507812 116.265625 290.390625 118.425781 290.390625 121.214844 C 290.390625 118.425781 290.269531 116.265625 290.085938 114.59375 C 290.011719 113.898438 289.820312 113.230469 289.519531 112.601562 C 289.214844 111.96875 288.816406 111.402344 288.320312 110.910156 C 287.824219 110.414062 287.261719 110.011719 286.628906 109.710938 C 285.996094 109.40625 285.332031 109.21875 284.636719 109.140625 C 282.960938 108.957031 280.800781 108.839844 278.015625 108.839844 C 280.800781 108.839844 282.960938 108.722656 284.636719 108.539062 C 285.332031 108.460938 285.996094 108.273438 286.628906 107.96875 C 287.261719 107.667969 287.824219 107.265625 288.320312 106.769531 C 288.816406 106.277344 289.214844 105.710938 289.519531 105.078125 C 289.820312 104.449219 290.011719 103.785156 290.085938 103.085938 C 290.269531 101.414062 290.390625 99.253906 290.390625 96.464844 C 290.390625 99.253906 290.507812 101.414062 290.691406 103.085938 Z M 290.691406 103.085938 " fill-opacity="1" fill-rule="nonzero"/></g><g clip-path="url(#d4850d6d12)"><path fill="#bab668" d="M 256.152344 88.304688 C 256.304688 88.914062 256.535156 89.492188 256.84375 90.035156 C 257.152344 90.582031 257.527344 91.074219 257.96875 91.515625 C 258.414062 91.960938 258.90625 92.335938 259.453125 92.644531 C 259.996094 92.953125 260.574219 93.183594 261.179688 93.335938 C 260.574219 93.488281 259.996094 93.71875 259.453125 94.027344 C 258.90625 94.335938 258.414062 94.710938 257.96875 95.152344 C 257.527344 95.597656 257.152344 96.089844 256.84375 96.636719 C 256.535156 97.179688 256.304688 97.757812 256.152344 98.363281 C 256 97.757812 255.769531 97.179688 255.460938 96.636719 C 255.152344 96.089844 254.773438 95.597656 254.332031 95.152344 C 253.890625 94.710938 253.394531 94.335938 252.851562 94.027344 C 252.304688 93.71875 251.730469 93.488281 251.121094 93.335938 C 251.730469 93.183594 252.304688 92.953125 252.851562 92.644531 C 253.394531 92.335938 253.890625 91.960938 254.332031 91.515625 C 254.773438 91.074219 255.152344 90.582031 255.460938 90.035156 C 255.769531 89.492188 256 88.914062 256.152344 88.304688 M 256.152344 80.398438 C 256.152344 83.3125 256.027344 85.570312 255.835938 87.320312 C 255.753906 88.050781 255.558594 88.746094 255.242188 89.40625 C 254.925781 90.066406 254.507812 90.65625 253.988281 91.171875 C 253.46875 91.691406 252.878906 92.109375 252.21875 92.425781 C 251.558594 92.742188 250.863281 92.941406 250.136719 93.019531 C 248.386719 93.210938 246.128906 93.335938 243.210938 93.335938 C 246.128906 93.335938 248.386719 93.460938 250.136719 93.652344 C 250.863281 93.730469 251.558594 93.929688 252.21875 94.246094 C 252.878906 94.5625 253.46875 94.980469 253.988281 95.5 C 254.507812 96.015625 254.925781 96.605469 255.242188 97.265625 C 255.558594 97.929688 255.753906 98.621094 255.835938 99.351562 C 256.027344 101.101562 256.152344 103.359375 256.152344 106.273438 C 256.152344 103.359375 256.273438 101.101562 256.464844 99.351562 C 256.546875 98.621094 256.746094 97.929688 257.0625 97.265625 C 257.378906 96.605469 257.796875 96.015625 258.3125 95.5 C 258.832031 94.980469 259.421875 94.5625 260.082031 94.246094 C 260.742188 93.929688 261.4375 93.730469 262.164062 93.652344 C 263.914062 93.460938 266.171875 93.335938 269.089844 93.335938 C 266.171875 93.335938 263.914062 93.210938 262.164062 93.019531 C 261.4375 92.941406 260.742188 92.742188 260.082031 92.425781 C 259.421875 92.109375 258.832031 91.691406 258.3125 91.171875 C 257.796875 90.65625 257.378906 90.066406 257.0625 89.40625 C 256.746094 88.746094 256.546875 88.050781 256.464844 87.320312 C 256.273438 85.570312 256.152344 83.3125 256.152344 80.398438 Z M 256.152344 80.398438 " fill-opacity="1" fill-rule="nonzero"/></g><g transform="matrix(1, 0, 0, 1, 78, 263)"><g clip-path="url(#16d81449ed)"><g clip-path="url(#83cbc192d2)"><g fill="#c4aa92" fill-opacity="1"><g transform="translate(0.536986, 14.932742)"><g><path d="M 5.703125 -8.53125 C 5.703125 -9.195312 6.023438 -9.53125 6.671875 -9.53125 C 7.328125 -9.53125 7.65625 -9.195312 7.65625 -8.53125 L 7.65625 -0.984375 C 7.65625 -0.328125 7.328125 0 6.671875 0 C 6.023438 0 5.703125 -0.328125 5.703125 -0.984375 L 5.703125 -3.84375 L 2.15625 -3.84375 L 2.15625 -0.984375 C 2.15625 -0.328125 1.828125 0 1.171875 0 C 0.535156 0 0.21875 -0.328125 0.21875 -0.984375 L 0.21875 -8.53125 C 0.21875 -9.195312 0.535156 -9.53125 1.171875 -9.53125 C 1.828125 -9.53125 2.15625 -9.195312 2.15625 -8.53125 L 2.15625 -5.8125 L 5.703125 -5.8125 Z M 5.703125 -8.53125 "/></g></g></g></g><g fill="#c4aa92" fill-opacity="1"><g transform="translate(11.099385, 14.932742)"><g><path d="M 4.390625 -9.796875 C 5.066406 -9.796875 5.679688 -9.648438 6.234375 -9.359375 C 6.785156 -9.078125 7.226562 -8.695312 7.5625 -8.21875 C 7.90625 -7.75 8.164062 -7.222656 8.34375 -6.640625 C 8.519531 -6.054688 8.609375 -5.445312 8.609375 -4.8125 C 8.609375 -4.1875 8.519531 -3.582031 8.34375 -3 C 8.164062 -2.425781 7.90625 -1.90625 7.5625 -1.4375 C 7.226562 -0.96875 6.785156 -0.59375 6.234375 -0.3125 C 5.679688 -0.03125 5.066406 0.109375 4.390625 0.109375 C 3.503906 0.109375 2.738281 -0.132812 2.09375 -0.625 C 1.445312 -1.113281 0.972656 -1.726562 0.671875 -2.46875 C 0.367188 -3.207031 0.21875 -4.003906 0.21875 -4.859375 C 0.21875 -5.492188 0.304688 -6.097656 0.484375 -6.671875 C 0.660156 -7.253906 0.914062 -7.78125 1.25 -8.25 C 1.59375 -8.71875 2.03125 -9.09375 2.5625 -9.375 C 3.101562 -9.65625 3.710938 -9.796875 4.390625 -9.796875 Z M 4.390625 -7.796875 C 3.703125 -7.796875 3.171875 -7.507812 2.796875 -6.9375 C 2.421875 -6.375 2.234375 -5.691406 2.234375 -4.890625 C 2.234375 -4.066406 2.425781 -3.347656 2.8125 -2.734375 C 3.195312 -2.128906 3.726562 -1.828125 4.40625 -1.828125 C 5.113281 -1.828125 5.65625 -2.117188 6.03125 -2.703125 C 6.414062 -3.285156 6.609375 -3.984375 6.609375 -4.796875 C 6.609375 -5.617188 6.410156 -6.320312 6.015625 -6.90625 C 5.628906 -7.5 5.085938 -7.796875 4.390625 -7.796875 Z M 4.390625 -7.796875 "/></g></g></g><g fill="#c4aa92" fill-opacity="1"><g transform="translate(22.560155, 14.932742)"><g><path d="M 1.171875 -9.53125 C 1.585938 -9.53125 1.941406 -9.3125 2.234375 -8.875 L 5.609375 -3.875 L 5.609375 -8.53125 C 5.609375 -9.1875 5.929688 -9.515625 6.578125 -9.515625 C 7.234375 -9.515625 7.5625 -9.1875 7.5625 -8.53125 L 7.5625 -1.0625 C 7.5625 -0.351562 7.234375 0 6.578125 0 C 6.160156 0 5.820312 -0.191406 5.5625 -0.578125 L 2.15625 -5.5625 L 2.15625 -1 C 2.15625 -0.332031 1.828125 0 1.171875 0 C 0.523438 0 0.203125 -0.332031 0.203125 -1 L 0.203125 -8.46875 C 0.203125 -9.175781 0.523438 -9.53125 1.171875 -9.53125 Z M 1.171875 -9.53125 "/></g></g></g><g fill="#c4aa92" fill-opacity="1"><g transform="translate(33.004343, 14.932742)"><g><path d="M 1.171875 -9.5 L 4.609375 -9.5 C 5.265625 -9.5 5.59375 -9.171875 5.59375 -8.515625 C 5.59375 -7.867188 5.265625 -7.546875 4.609375 -7.546875 L 2.09375 -7.546875 L 2.09375 -5.890625 L 4.0625 -5.890625 C 4.707031 -5.890625 5.03125 -5.5625 5.03125 -4.90625 C 5.03125 -4.257812 4.707031 -3.9375 4.0625 -3.9375 L 2.09375 -3.9375 L 2.09375 -1.96875 L 4.6875 -1.96875 C 5.394531 -1.96875 5.75 -1.640625 5.75 -0.984375 C 5.75 -0.328125 5.394531 0 4.6875 0 L 1.171875 0 C 0.734375 0 0.453125 -0.0664062 0.328125 -0.203125 C 0.203125 -0.335938 0.140625 -0.628906 0.140625 -1.078125 L 0.140625 -8.4375 C 0.140625 -9.144531 0.484375 -9.5 1.171875 -9.5 Z M 1.171875 -9.5 "/></g></g></g><g fill="#c4aa92" fill-opacity="1"><g transform="translate(41.190758, 14.932742)"><g><path d="M 5.765625 -9.53125 C 6.398438 -9.53125 6.71875 -9.21875 6.71875 -8.59375 C 6.71875 -8.425781 6.671875 -8.25 6.578125 -8.0625 L 4.375 -3.859375 L 4.375 -1.046875 C 4.375 -0.691406 4.289062 -0.425781 4.125 -0.25 C 3.96875 -0.0820312 3.71875 0 3.375 0 C 2.726562 0 2.40625 -0.347656 2.40625 -1.046875 L 2.40625 -3.875 C 2.15625 -4.289062 1.796875 -4.984375 1.328125 -5.953125 C 0.859375 -6.929688 0.519531 -7.609375 0.3125 -7.984375 C 0.207031 -8.179688 0.15625 -8.375 0.15625 -8.5625 C 0.15625 -9.207031 0.46875 -9.53125 1.09375 -9.53125 C 1.5 -9.53125 1.773438 -9.351562 1.921875 -9 L 3.421875 -5.65625 C 3.585938 -5.914062 3.832031 -6.472656 4.15625 -7.328125 C 4.476562 -8.179688 4.722656 -8.738281 4.890625 -9 C 5.078125 -9.351562 5.367188 -9.53125 5.765625 -9.53125 Z M 5.765625 -9.53125 "/></g></g></g><g fill="#c4aa92" fill-opacity="1"><g transform="translate(50.346483, 14.932742)"><g><path d="M 1.421875 -9.5 L 3.65625 -9.5 C 4.488281 -9.5 5.207031 -9.257812 5.8125 -8.78125 C 6.425781 -8.3125 6.875 -7.722656 7.15625 -7.015625 C 7.445312 -6.304688 7.59375 -5.535156 7.59375 -4.703125 C 7.59375 -3.890625 7.425781 -3.128906 7.09375 -2.421875 C 6.769531 -1.722656 6.285156 -1.144531 5.640625 -0.6875 C 4.992188 -0.226562 4.253906 0 3.421875 0 L 1.234375 0 C 0.835938 0 0.566406 -0.0625 0.421875 -0.1875 C 0.273438 -0.320312 0.203125 -0.601562 0.203125 -1.03125 L 0.203125 -8.40625 C 0.203125 -9.132812 0.609375 -9.5 1.421875 -9.5 Z M 2.15625 -7.546875 L 2.15625 -1.96875 L 3.375 -1.96875 C 4.050781 -1.96875 4.585938 -2.238281 4.984375 -2.78125 C 5.378906 -3.320312 5.578125 -3.960938 5.578125 -4.703125 C 5.578125 -5.472656 5.394531 -6.140625 5.03125 -6.703125 C 4.675781 -7.265625 4.175781 -7.546875 3.53125 -7.546875 Z M 2.15625 -7.546875 "/></g></g></g><g fill="#c4aa92" fill-opacity="1"><g transform="translate(60.67246, 14.932742)"><g><path d="M 5.703125 -8.46875 C 5.703125 -9.164062 6.039062 -9.515625 6.71875 -9.515625 C 7.40625 -9.515625 7.75 -9.164062 7.75 -8.46875 L 7.75 -3.796875 C 7.75 -3.085938 7.648438 -2.472656 7.453125 -1.953125 C 7.253906 -1.429688 6.972656 -1.019531 6.609375 -0.71875 C 6.242188 -0.425781 5.835938 -0.207031 5.390625 -0.0625 C 4.953125 0.0703125 4.46875 0.140625 3.9375 0.140625 C 3.40625 0.140625 2.921875 0.0703125 2.484375 -0.0625 C 2.046875 -0.207031 1.648438 -0.425781 1.296875 -0.71875 C 0.953125 -1.019531 0.6875 -1.429688 0.5 -1.953125 C 0.3125 -2.472656 0.21875 -3.085938 0.21875 -3.796875 L 0.21875 -8.46875 C 0.21875 -9.164062 0.554688 -9.515625 1.234375 -9.515625 C 1.910156 -9.515625 2.25 -9.164062 2.25 -8.46875 L 2.25 -3.875 C 2.25 -2.570312 2.851562 -1.921875 4.0625 -1.921875 C 4.570312 -1.921875 4.972656 -2.066406 5.265625 -2.359375 C 5.554688 -2.648438 5.703125 -3.15625 5.703125 -3.875 Z M 5.703125 -8.46875 "/></g></g></g><g fill="#c4aa92" fill-opacity="1"><g transform="translate(71.305774, 14.932742)"><g><path d="M 1.15625 -9.53125 C 1.8125 -9.53125 2.140625 -9.226562 2.140625 -8.625 L 2.140625 -5.953125 L 5.125 -9.21875 C 5.257812 -9.40625 5.476562 -9.5 5.78125 -9.5 C 6.039062 -9.5 6.28125 -9.394531 6.5 -9.1875 C 6.71875 -8.976562 6.828125 -8.742188 6.828125 -8.484375 C 6.828125 -8.203125 6.726562 -7.972656 6.53125 -7.796875 C 6.269531 -7.492188 5.910156 -7.109375 5.453125 -6.640625 C 5.003906 -6.171875 4.65625 -5.796875 4.40625 -5.515625 L 6.78125 -1.625 C 6.945312 -1.46875 7.03125 -1.253906 7.03125 -0.984375 C 7.03125 -0.703125 6.910156 -0.460938 6.671875 -0.265625 C 6.429688 -0.078125 6.222656 0.015625 6.046875 0.015625 C 5.847656 0.015625 5.6875 -0.0195312 5.5625 -0.09375 C 5.445312 -0.164062 5.320312 -0.28125 5.1875 -0.4375 L 2.984375 -4.015625 L 2.140625 -3.125 L 2.140625 -0.9375 C 2.140625 -0.3125 1.816406 0 1.171875 0 C 0.515625 0 0.1875 -0.3125 0.1875 -0.9375 L 0.1875 -8.625 C 0.1875 -9.226562 0.507812 -9.53125 1.15625 -9.53125 Z M 1.15625 -9.53125 "/></g></g></g><g fill="#c4aa92" fill-opacity="1"><g transform="translate(80.780652, 14.932742)"><g><path d="M 1.171875 -9.5 L 4.609375 -9.5 C 5.265625 -9.5 5.59375 -9.171875 5.59375 -8.515625 C 5.59375 -7.867188 5.265625 -7.546875 4.609375 -7.546875 L 2.09375 -7.546875 L 2.09375 -5.890625 L 4.0625 -5.890625 C 4.707031 -5.890625 5.03125 -5.5625 5.03125 -4.90625 C 5.03125 -4.257812 4.707031 -3.9375 4.0625 -3.9375 L 2.09375 -3.9375 L 2.09375 -1.96875 L 4.6875 -1.96875 C 5.394531 -1.96875 5.75 -1.640625 5.75 -0.984375 C 5.75 -0.328125 5.394531 0 4.6875 0 L 1.171875 0 C 0.734375 0 0.453125 -0.0664062 0.328125 -0.203125 C 0.203125 -0.335938 0.140625 -0.628906 0.140625 -1.078125 L 0.140625 -8.4375 C 0.140625 -9.144531 0.484375 -9.5 1.171875 -9.5 Z M 1.171875 -9.5 "/></g></g></g><g fill="#c4aa92" fill-opacity="1"><g transform="translate(88.967068, 14.932742)"><g><path d="M 3.109375 -9.796875 C 3.878906 -9.796875 4.585938 -9.554688 5.234375 -9.078125 C 5.597656 -8.804688 5.78125 -8.488281 5.78125 -8.125 C 5.78125 -7.851562 5.6875 -7.613281 5.5 -7.40625 C 5.320312 -7.195312 5.097656 -7.09375 4.828125 -7.09375 C 4.578125 -7.09375 4.320312 -7.195312 4.0625 -7.40625 C 3.75 -7.632812 3.425781 -7.75 3.09375 -7.75 C 2.832031 -7.75 2.628906 -7.695312 2.484375 -7.59375 C 2.347656 -7.5 2.28125 -7.320312 2.28125 -7.0625 C 2.28125 -6.9375 2.300781 -6.828125 2.34375 -6.734375 C 2.394531 -6.648438 2.476562 -6.566406 2.59375 -6.484375 C 2.71875 -6.410156 2.820312 -6.347656 2.90625 -6.296875 C 2.988281 -6.253906 3.132812 -6.1875 3.34375 -6.09375 C 3.550781 -6 3.695312 -5.9375 3.78125 -5.90625 C 4.644531 -5.488281 5.28125 -5.070312 5.6875 -4.65625 C 6.101562 -4.25 6.3125 -3.695312 6.3125 -3 C 6.3125 -2.039062 5.992188 -1.273438 5.359375 -0.703125 C 4.734375 -0.128906 3.941406 0.15625 2.984375 0.15625 C 2.179688 0.15625 1.421875 -0.0703125 0.703125 -0.53125 C 0.335938 -0.769531 0.15625 -1.085938 0.15625 -1.484375 C 0.15625 -2.117188 0.46875 -2.4375 1.09375 -2.4375 C 1.351562 -2.4375 1.597656 -2.367188 1.828125 -2.234375 C 2.210938 -1.992188 2.597656 -1.875 2.984375 -1.875 C 3.335938 -1.875 3.632812 -1.96875 3.875 -2.15625 C 4.113281 -2.34375 4.234375 -2.601562 4.234375 -2.9375 C 4.234375 -3.144531 4.140625 -3.328125 3.953125 -3.484375 C 3.765625 -3.640625 3.421875 -3.835938 2.921875 -4.078125 C 2.585938 -4.234375 2.328125 -4.359375 2.140625 -4.453125 C 1.960938 -4.546875 1.734375 -4.6875 1.453125 -4.875 C 1.171875 -5.070312 0.953125 -5.257812 0.796875 -5.4375 C 0.648438 -5.613281 0.515625 -5.835938 0.390625 -6.109375 C 0.273438 -6.390625 0.21875 -6.691406 0.21875 -7.015625 C 0.21875 -7.734375 0.488281 -8.375 1.03125 -8.9375 C 1.570312 -9.507812 2.265625 -9.796875 3.109375 -9.796875 Z M 3.109375 -9.796875 "/></g></g></g><g fill="#c4aa92" fill-opacity="1"><g transform="translate(97.862728, 14.932742)"><g/></g></g><g fill="#c4aa92" fill-opacity="1"><g transform="translate(102.786616, 14.932742)"><g><path d="M 6.234375 -6.234375 C 6.234375 -5.910156 6.148438 -5.664062 5.984375 -5.5 C 5.828125 -5.34375 5.609375 -5.265625 5.328125 -5.265625 C 5.003906 -5.265625 4.773438 -5.34375 4.640625 -5.5 C 4.503906 -5.664062 4.4375 -5.910156 4.4375 -6.234375 C 4.4375 -6.597656 4.503906 -6.863281 4.640625 -7.03125 C 4.773438 -7.195312 5.003906 -7.28125 5.328125 -7.28125 C 5.609375 -7.28125 5.828125 -7.195312 5.984375 -7.03125 C 6.148438 -6.863281 6.234375 -6.597656 6.234375 -6.234375 Z M 6.234375 -6.234375 "/></g></g></g><g fill="#c4aa92" fill-opacity="1"><g transform="translate(115.705412, 14.932742)"><g/></g></g><g fill="#c4aa92" fill-opacity="1"><g transform="translate(120.629299, 14.932742)"><g><path d="M 1.359375 -9.515625 L 3.796875 -9.515625 C 4.773438 -9.515625 5.546875 -9.234375 6.109375 -8.671875 C 6.679688 -8.117188 6.96875 -7.453125 6.96875 -6.671875 C 6.96875 -6.191406 6.847656 -5.726562 6.609375 -5.28125 C 6.378906 -4.84375 6.023438 -4.46875 5.546875 -4.15625 L 6.734375 -1.5625 C 6.835938 -1.320312 6.890625 -1.113281 6.890625 -0.9375 C 6.890625 -0.644531 6.8125 -0.410156 6.65625 -0.234375 C 6.5 -0.0664062 6.265625 0.015625 5.953125 0.015625 C 5.535156 0.015625 5.242188 -0.164062 5.078125 -0.53125 L 3.515625 -3.65625 L 2.109375 -3.65625 L 2.109375 -1.078125 C 2.109375 -0.359375 1.785156 0 1.140625 0 C 0.484375 0 0.15625 -0.359375 0.15625 -1.078125 L 0.15625 -8.5 C 0.15625 -9.175781 0.554688 -9.515625 1.359375 -9.515625 Z M 2.109375 -7.5625 L 2.109375 -5.609375 L 3.875 -5.609375 C 4.195312 -5.609375 4.460938 -5.710938 4.671875 -5.921875 C 4.878906 -6.140625 4.984375 -6.390625 4.984375 -6.671875 C 4.984375 -6.910156 4.882812 -7.117188 4.6875 -7.296875 C 4.5 -7.472656 4.226562 -7.5625 3.875 -7.5625 Z M 2.109375 -7.5625 "/></g></g></g><g fill="#c4aa92" fill-opacity="1"><g transform="translate(130.470627, 14.932742)"><g><path d="M 1.171875 -9.5 L 4.609375 -9.5 C 5.265625 -9.5 5.59375 -9.171875 5.59375 -8.515625 C 5.59375 -7.867188 5.265625 -7.546875 4.609375 -7.546875 L 2.09375 -7.546875 L 2.09375 -5.890625 L 4.0625 -5.890625 C 4.707031 -5.890625 5.03125 -5.5625 5.03125 -4.90625 C 5.03125 -4.257812 4.707031 -3.9375 4.0625 -3.9375 L 2.09375 -3.9375 L 2.09375 -1.96875 L 4.6875 -1.96875 C 5.394531 -1.96875 5.75 -1.640625 5.75 -0.984375 C 5.75 -0.328125 5.394531 0 4.6875 0 L 1.171875 0 C 0.734375 0 0.453125 -0.0664062 0.328125 -0.203125 C 0.203125 -0.335938 0.140625 -0.628906 0.140625 -1.078125 L 0.140625 -8.4375 C 0.140625 -9.144531 0.484375 -9.5 1.171875 -9.5 Z M 1.171875 -9.5 "/></g></g></g><g fill="#c4aa92" fill-opacity="1"><g transform="translate(138.657042, 14.932742)"><g><path d="M 1.1875 -9.515625 L 3.75 -9.515625 C 4.6875 -9.515625 5.457031 -9.222656 6.0625 -8.640625 C 6.664062 -8.054688 6.96875 -7.304688 6.96875 -6.390625 C 6.96875 -5.503906 6.664062 -4.765625 6.0625 -4.171875 C 5.457031 -3.585938 4.707031 -3.296875 3.8125 -3.296875 L 2.109375 -3.296875 L 2.109375 -1 C 2.109375 -0.332031 1.78125 0 1.125 0 C 0.476562 0 0.15625 -0.332031 0.15625 -1 L 0.15625 -8.5 C 0.15625 -9.175781 0.5 -9.515625 1.1875 -9.515625 Z M 2.109375 -7.5625 L 2.109375 -5.25 L 3.765625 -5.25 C 4.128906 -5.25 4.421875 -5.347656 4.640625 -5.546875 C 4.859375 -5.753906 4.96875 -6.035156 4.96875 -6.390625 C 4.96875 -6.765625 4.847656 -7.050781 4.609375 -7.25 C 4.367188 -7.457031 4.023438 -7.5625 3.578125 -7.5625 Z M 2.109375 -7.5625 "/></g></g></g><g fill="#c4aa92" fill-opacity="1"><g transform="translate(148.380159, 14.932742)"><g><path d="M 4.390625 -9.796875 C 5.066406 -9.796875 5.679688 -9.648438 6.234375 -9.359375 C 6.785156 -9.078125 7.226562 -8.695312 7.5625 -8.21875 C 7.90625 -7.75 8.164062 -7.222656 8.34375 -6.640625 C 8.519531 -6.054688 8.609375 -5.445312 8.609375 -4.8125 C 8.609375 -4.1875 8.519531 -3.582031 8.34375 -3 C 8.164062 -2.425781 7.90625 -1.90625 7.5625 -1.4375 C 7.226562 -0.96875 6.785156 -0.59375 6.234375 -0.3125 C 5.679688 -0.03125 5.066406 0.109375 4.390625 0.109375 C 3.503906 0.109375 2.738281 -0.132812 2.09375 -0.625 C 1.445312 -1.113281 0.972656 -1.726562 0.671875 -2.46875 C 0.367188 -3.207031 0.21875 -4.003906 0.21875 -4.859375 C 0.21875 -5.492188 0.304688 -6.097656 0.484375 -6.671875 C 0.660156 -7.253906 0.914062 -7.78125 1.25 -8.25 C 1.59375 -8.71875 2.03125 -9.09375 2.5625 -9.375 C 3.101562 -9.65625 3.710938 -9.796875 4.390625 -9.796875 Z M 4.390625 -7.796875 C 3.703125 -7.796875 3.171875 -7.507812 2.796875 -6.9375 C 2.421875 -6.375 2.234375 -5.691406 2.234375 -4.890625 C 2.234375 -4.066406 2.425781 -3.347656 2.8125 -2.734375 C 3.195312 -2.128906 3.726562 -1.828125 4.40625 -1.828125 C 5.113281 -1.828125 5.65625 -2.117188 6.03125 -2.703125 C 6.414062 -3.285156 6.609375 -3.984375 6.609375 -4.796875 C 6.609375 -5.617188 6.410156 -6.320312 6.015625 -6.90625 C 5.628906 -7.5 5.085938 -7.796875 4.390625 -7.796875 Z M 4.390625 -7.796875 "/></g></g></g><g fill="#c4aa92" fill-opacity="1"><g transform="translate(159.840929, 14.932742)"><g><path d="M 3.109375 -9.796875 C 3.878906 -9.796875 4.585938 -9.554688 5.234375 -9.078125 C 5.597656 -8.804688 5.78125 -8.488281 5.78125 -8.125 C 5.78125 -7.851562 5.6875 -7.613281 5.5 -7.40625 C 5.320312 -7.195312 5.097656 -7.09375 4.828125 -7.09375 C 4.578125 -7.09375 4.320312 -7.195312 4.0625 -7.40625 C 3.75 -7.632812 3.425781 -7.75 3.09375 -7.75 C 2.832031 -7.75 2.628906 -7.695312 2.484375 -7.59375 C 2.347656 -7.5 2.28125 -7.320312 2.28125 -7.0625 C 2.28125 -6.9375 2.300781 -6.828125 2.34375 -6.734375 C 2.394531 -6.648438 2.476562 -6.566406 2.59375 -6.484375 C 2.71875 -6.410156 2.820312 -6.347656 2.90625 -6.296875 C 2.988281 -6.253906 3.132812 -6.1875 3.34375 -6.09375 C 3.550781 -6 3.695312 -5.9375 3.78125 -5.90625 C 4.644531 -5.488281 5.28125 -5.070312 5.6875 -4.65625 C 6.101562 -4.25 6.3125 -3.695312 6.3125 -3 C 6.3125 -2.039062 5.992188 -1.273438 5.359375 -0.703125 C 4.734375 -0.128906 3.941406 0.15625 2.984375 0.15625 C 2.179688 0.15625 1.421875 -0.0703125 0.703125 -0.53125 C 0.335938 -0.769531 0.15625 -1.085938 0.15625 -1.484375 C 0.15625 -2.117188 0.46875 -2.4375 1.09375 -2.4375 C 1.351562 -2.4375 1.597656 -2.367188 1.828125 -2.234375 C 2.210938 -1.992188 2.597656 -1.875 2.984375 -1.875 C 3.335938 -1.875 3.632812 -1.96875 3.875 -2.15625 C 4.113281 -2.34375 4.234375 -2.601562 4.234375 -2.9375 C 4.234375 -3.144531 4.140625 -3.328125 3.953125 -3.484375 C 3.765625 -3.640625 3.421875 -3.835938 2.921875 -4.078125 C 2.585938 -4.234375 2.328125 -4.359375 2.140625 -4.453125 C 1.960938 -4.546875 1.734375 -4.6875 1.453125 -4.875 C 1.171875 -5.070312 0.953125 -5.257812 0.796875 -5.4375 C 0.648438 -5.613281 0.515625 -5.835938 0.390625 -6.109375 C 0.273438 -6.390625 0.21875 -6.691406 0.21875 -7.015625 C 0.21875 -7.734375 0.488281 -8.375 1.03125 -8.9375 C 1.570312 -9.507812 2.265625 -9.796875 3.109375 -9.796875 Z M 3.109375 -9.796875 "/></g></g></g><g fill="#c4aa92" fill-opacity="1"><g transform="translate(168.736589, 14.932742)"><g><path d="M 1.171875 -9.515625 L 5.359375 -9.515625 C 6.015625 -9.515625 6.34375 -9.1875 6.34375 -8.53125 C 6.34375 -7.882812 6.015625 -7.5625 5.359375 -7.5625 L 4.234375 -7.5625 L 4.234375 -1.046875 C 4.234375 -0.347656 3.914062 0 3.28125 0 C 2.613281 0 2.28125 -0.347656 2.28125 -1.046875 L 2.28125 -7.5625 L 1.171875 -7.5625 C 0.492188 -7.5625 0.15625 -7.882812 0.15625 -8.53125 C 0.15625 -9.1875 0.492188 -9.515625 1.171875 -9.515625 Z M 1.171875 -9.515625 "/></g></g></g><g fill="#c4aa92" fill-opacity="1"><g transform="translate(177.419481, 14.932742)"><g><path d="M 1.171875 -9.5 L 4.609375 -9.5 C 5.265625 -9.5 5.59375 -9.171875 5.59375 -8.515625 C 5.59375 -7.867188 5.265625 -7.546875 4.609375 -7.546875 L 2.09375 -7.546875 L 2.09375 -5.890625 L 4.0625 -5.890625 C 4.707031 -5.890625 5.03125 -5.5625 5.03125 -4.90625 C 5.03125 -4.257812 4.707031 -3.9375 4.0625 -3.9375 L 2.09375 -3.9375 L 2.09375 -1.96875 L 4.6875 -1.96875 C 5.394531 -1.96875 5.75 -1.640625 5.75 -0.984375 C 5.75 -0.328125 5.394531 0 4.6875 0 L 1.171875 0 C 0.734375 0 0.453125 -0.0664062 0.328125 -0.203125 C 0.203125 -0.335938 0.140625 -0.628906 0.140625 -1.078125 L 0.140625 -8.4375 C 0.140625 -9.144531 0.484375 -9.5 1.171875 -9.5 Z M 1.171875 -9.5 "/></g></g></g><g fill="#c4aa92" fill-opacity="1"><g transform="translate(185.605907, 14.932742)"><g><path d="M 1.359375 -9.515625 L 3.796875 -9.515625 C 4.773438 -9.515625 5.546875 -9.234375 6.109375 -8.671875 C 6.679688 -8.117188 6.96875 -7.453125 6.96875 -6.671875 C 6.96875 -6.191406 6.847656 -5.726562 6.609375 -5.28125 C 6.378906 -4.84375 6.023438 -4.46875 5.546875 -4.15625 L 6.734375 -1.5625 C 6.835938 -1.320312 6.890625 -1.113281 6.890625 -0.9375 C 6.890625 -0.644531 6.8125 -0.410156 6.65625 -0.234375 C 6.5 -0.0664062 6.265625 0.015625 5.953125 0.015625 C 5.535156 0.015625 5.242188 -0.164062 5.078125 -0.53125 L 3.515625 -3.65625 L 2.109375 -3.65625 L 2.109375 -1.078125 C 2.109375 -0.359375 1.785156 0 1.140625 0 C 0.484375 0 0.15625 -0.359375 0.15625 -1.078125 L 0.15625 -8.5 C 0.15625 -9.175781 0.554688 -9.515625 1.359375 -9.515625 Z M 2.109375 -7.5625 L 2.109375 -5.609375 L 3.875 -5.609375 C 4.195312 -5.609375 4.460938 -5.710938 4.671875 -5.921875 C 4.878906 -6.140625 4.984375 -6.390625 4.984375 -6.671875 C 4.984375 -6.910156 4.882812 -7.117188 4.6875 -7.296875 C 4.5 -7.472656 4.226562 -7.5625 3.875 -7.5625 Z M 2.109375 -7.5625 "/></g></g></g><g fill="#c4aa92" fill-opacity="1"><g transform="translate(195.447224, 14.932742)"><g><path d="M 1 -9.53125 C 1.65625 -9.53125 1.984375 -9.195312 1.984375 -8.53125 L 1.984375 -1 C 1.984375 -0.332031 1.65625 0 1 0 C 0.34375 0 0.015625 -0.332031 0.015625 -1 L 0.015625 -8.53125 C 0.015625 -9.195312 0.34375 -9.53125 1 -9.53125 Z M 1 -9.53125 "/></g></g></g><g fill="#c4aa92" fill-opacity="1"><g transform="translate(200.193811, 14.932742)"><g><path d="M 4.046875 -9.5 C 4.617188 -9.5 5.007812 -9.210938 5.21875 -8.640625 C 7.039062 -3.609375 7.953125 -1.046875 7.953125 -0.953125 C 7.953125 -0.671875 7.867188 -0.441406 7.703125 -0.265625 C 7.535156 -0.0859375 7.300781 0 7 0 C 6.53125 0 6.210938 -0.203125 6.046875 -0.609375 L 5.625 -1.71875 L 2.5 -1.71875 C 2.457031 -1.613281 2.398438 -1.457031 2.328125 -1.25 C 2.253906 -1.039062 2.203125 -0.890625 2.171875 -0.796875 C 1.984375 -0.265625 1.640625 0 1.140625 0 C 0.828125 0 0.59375 -0.09375 0.4375 -0.28125 C 0.289062 -0.46875 0.21875 -0.695312 0.21875 -0.96875 C 0.21875 -1.070312 0.238281 -1.203125 0.28125 -1.359375 L 2.84375 -8.640625 C 3.039062 -9.210938 3.441406 -9.5 4.046875 -9.5 Z M 3.15625 -3.71875 L 4.890625 -3.71875 C 4.796875 -3.96875 4.671875 -4.3125 4.515625 -4.75 C 4.359375 -5.1875 4.203125 -5.648438 4.046875 -6.140625 Z M 3.15625 -3.71875 "/></g></g></g></g></g></svg>